<svg xmlns="http://www.w3.org/2000/svg" width="116" height="26"><path d="M26.7 25.3h-5V9.2l-8.2 14.2L5.4 9.2v16.1h-5v-24h5.4l7.7 13.3 7.8-13.3h5.3v24zm5-3.8c-.8-1.3-1.2-2.7-1.2-4.2s.4-2.9 1.2-4.2c.8-1.3 1.9-2.3 3.2-3 1.3-.8 2.8-1.1 4.4-1.1 1.6 0 3.1.4 4.5 1.1 1.4.7 2.4 1.7 3.2 3 .8 1.3 1.2 2.7 1.2 4.2s-.4 2.9-1.2 4.2c-.8 1.3-1.8 2.3-3.2 3-1.4.7-2.8 1.1-4.5 1.1-1.6 0-3.1-.4-4.4-1.1-1.4-.7-2.5-1.8-3.2-3zm11.6-4.2c0-.7-.2-1.4-.5-2-.4-.6-.9-1.1-1.5-1.5-.6-.4-1.3-.5-2-.5-1.1 0-2.1.4-2.8 1.2-.8.8-1.2 1.7-1.2 2.9 0 1.1.4 2.1 1.2 2.8.8.8 1.7 1.2 2.8 1.2 1.1 0 2.1-.4 2.8-1.2.8-.9 1.2-1.8 1.2-2.9zM57.9 13v12.3H53V13h-3V9.3h3V3.5h4.8v5.8h3V13h-2.9zm12 0v12.3H65V13h-3V9.3h3V3.5h4.8v5.8h3V13h-2.9zm21.7 12.3h-4.8v-1.6c-1.2 1.3-2.8 2-4.8 2-1.4 0-2.7-.4-3.9-1.1-1.2-.7-2.1-1.7-2.8-3-.7-1.3-1.1-2.7-1.1-4.2s.4-2.9 1.1-4.2c.7-1.3 1.7-2.3 2.8-3C79.2 9.3 80.5 9 82 9c2 0 3.6.7 4.8 2V9.3h4.8v16zm-4.6-8c0-1.1-.4-2.1-1.2-2.9s-1.7-1.2-2.9-1.2c-1.1 0-2.1.4-2.8 1.2-.8.8-1.2 1.7-1.2 2.9 0 1.1.4 2.1 1.2 2.8.8.8 1.7 1.2 2.8 1.2 1.1 0 2.1-.4 2.9-1.2s1.2-1.7 1.2-2.8z" fill="#1d2128"/><path d="M105.3 17.9c-4.1 0-7.5 3.4-7.5 7.5h7.5v-7.5z" fill="#33a9c8"/><path d="M101.5 8.7c-2.1 0-3.8 1.7-3.8 3.7 0 2.1 1.7 3.7 3.7 3.7 2.1 0 3.8-1.7 3.8-3.7.1-2.1-1.6-3.7-3.7-3.7z" opacity=".8" fill="#001bbc"/><path opacity=".75" fill="#ff2217" d="M107 17.9h7.5v7.5H107z"/><path fill="#f7931e" d="M114.5 8.7H107v7.5"/></svg>