<?xml version="1.0" encoding="utf-8"?>
<!-- Generator: Adobe Illustrator 26.1.0, SVG Export Plug-In . SVG Version: 6.00 Build 0)  -->
<svg version="1.1" id="Layer_1" xmlns="http://www.w3.org/2000/svg" xmlns:xlink="http://www.w3.org/1999/xlink" x="0px" y="0px"
	 width="96px" height="96px" viewBox="0 0 96 96" style="enable-background:new 0 0 96 96;" xml:space="preserve">
<style type="text/css">
	.st0{fill:#1D1D1B;}
</style>
<g>
	<polygon class="st0" points="2,60.9 2,64.6 5.7,64.6 9.4,64.6 9.4,60.9 5.7,60.9 	"/>
	<path class="st0" d="M9.4,27.8H13h3.7h3.7h0h3.7h3.7v-3.7v0V2h-3.7h-3.7h0h-3.7H13H9.4H5.7H2v22.1v0v3.7h3.7H9.4z M5.7,5.7h3.7H13
		h3.7h3.7h0h3.7v18.4h-3.7h0h-3.7H13H9.4H5.7V5.7z"/>
	<polygon class="st0" points="9.4,38.8 9.4,35.1 5.7,35.1 5.7,31.4 2,31.4 2,42.5 5.7,42.5 5.7,38.8 	"/>
	<rect x="5.7" y="42.5" class="st0" width="3.7" height="7.4"/>
	<polygon class="st0" points="5.7,53.5 2,53.5 2,57.2 5.7,57.2 9.4,57.2 9.4,53.5 	"/>
	<rect x="9.4" y="31.4" class="st0" width="3.7" height="3.7"/>
	<polygon class="st0" points="13,42.5 16.7,42.5 16.7,46.2 20.4,46.2 20.4,46.2 24.1,46.2 24.1,42.5 27.8,42.5 27.8,46.2 31.4,46.2 
		31.4,42.5 31.4,38.8 27.8,38.8 24.1,38.8 24.1,35.1 20.4,35.1 20.4,35.1 16.7,35.1 16.7,38.8 13,38.8 9.4,38.8 9.4,42.5 	"/>
	<polygon class="st0" points="16.7,20.4 20.4,20.4 20.4,9.4 16.7,9.4 13,9.4 9.4,9.4 9.4,20.4 13,20.4 	"/>
	<polygon class="st0" points="13,75.6 9.4,75.6 9.4,86.6 13,86.6 16.7,86.6 20.4,86.6 20.4,75.6 16.7,75.6 	"/>
	<path class="st0" d="M20.4,68.2L20.4,68.2h-3.7H13H9.4H5.7H2v7.4v11v0V94h3.7h3.7H13h3.7h3.7h0h3.7h3.7v-7.4v0v-11v-7.4h-3.7H20.4z
		 M24.1,86.6L24.1,86.6v3.7h-3.7h0h-3.7H13H9.4H5.7v-3.7v0v-11v-3.7h3.7H13h3.7h3.7h0h3.7v3.7V86.6z"/>
	<rect x="24.1" y="46.2" class="st0" width="3.7" height="3.7"/>
	<polygon class="st0" points="31.4,35.1 31.4,31.4 27.8,31.4 24.1,31.4 24.1,35.1 27.8,35.1 	"/>
	<path class="st0" d="M27.8,53.5h-3.7h-3.7v-3.7h-3.7v-3.7H13v3.7H9.4v3.7H13v3.7H9.4v3.7H13v3.7h3.7h3.7h0h3.7h3.7v-3.7h-3.7v-3.7
		h3.7h3.7v-3.7H27.8z M16.7,57.2v-3.7h3.7v3.7H16.7z"/>
	<rect x="31.4" y="35.1" class="st0" width="3.7" height="3.7"/>
	<rect x="31.4" y="46.2" class="st0" width="3.7" height="7.4"/>
	<rect x="31.4" y="83" class="st0" width="3.7" height="3.7"/>
	<polygon class="st0" points="35.1,2 31.4,2 31.4,5.7 35.1,5.7 38.8,5.7 38.8,2 	"/>
	<polygon class="st0" points="35.1,9.4 31.4,9.4 31.4,13 35.1,13 38.8,13 38.8,9.4 	"/>
	<polygon class="st0" points="38.8,24.1 38.8,20.4 42.5,20.4 42.5,24.1 38.8,24.1 38.8,27.8 42.5,27.8 42.5,24.1 46.2,24.1 
		46.2,31.4 49.8,31.4 49.8,24.1 53.5,24.1 53.5,31.4 57.2,31.4 57.2,24.1 53.5,24.1 53.5,16.7 57.2,16.7 60.9,16.7 64.6,16.7 
		64.6,9.4 60.9,9.4 57.2,9.4 57.2,2 53.5,2 53.5,5.7 49.8,5.7 46.2,5.7 46.2,2 42.5,2 42.5,5.7 38.8,5.7 38.8,9.4 42.5,9.4 
		46.2,9.4 49.8,9.4 49.8,13 46.2,13 46.2,16.7 49.8,16.7 49.8,24.1 46.2,24.1 46.2,16.7 42.5,16.7 42.5,13 38.8,13 38.8,20.4 
		35.1,20.4 31.4,20.4 31.4,24.1 31.4,27.8 35.1,27.8 35.1,24.1 	"/>
	<rect x="35.1" y="27.8" class="st0" width="3.7" height="7.4"/>
	<polygon class="st0" points="38.8,38.8 35.1,38.8 35.1,42.5 35.1,46.2 38.8,46.2 38.8,42.5 	"/>
	<rect x="38.8" y="46.2" class="st0" width="3.7" height="3.7"/>
	<polygon class="st0" points="38.8,79.3 38.8,75.6 35.1,75.6 35.1,79.3 38.8,79.3 38.8,83 42.5,83 42.5,79.3 	"/>
	<polygon class="st0" points="42.5,42.5 42.5,46.2 46.2,46.2 46.2,42.5 46.2,31.4 42.5,31.4 	"/>
	<polygon class="st0" points="46.2,75.6 46.2,79.3 49.8,79.3 49.8,75.6 49.8,64.6 49.8,60.9 46.2,60.9 42.5,60.9 42.5,57.2 
		46.2,57.2 46.2,53.5 42.5,53.5 38.8,53.5 35.1,53.5 35.1,57.2 31.4,57.2 31.4,64.6 31.4,71.9 35.1,71.9 35.1,68.2 38.8,68.2 
		38.8,64.6 35.1,64.6 35.1,60.9 38.8,60.9 38.8,64.6 42.5,64.6 46.2,64.6 46.2,71.9 42.5,71.9 38.8,71.9 38.8,75.6 42.5,75.6 	"/>
	<polygon class="st0" points="46.2,83 42.5,83 42.5,86.6 38.8,86.6 35.1,86.6 35.1,90.3 31.4,90.3 31.4,94 35.1,94 38.8,94 42.5,94 
		42.5,90.3 46.2,90.3 46.2,94 49.8,94 49.8,86.6 46.2,86.6 	"/>
	<rect x="49.8" y="38.8" class="st0" width="3.7" height="3.7"/>
	<rect x="49.8" y="49.8" class="st0" width="3.7" height="3.7"/>
	<rect x="49.8" y="83" class="st0" width="3.7" height="3.7"/>
	<rect x="53.5" y="64.6" class="st0" width="3.7" height="7.4"/>
	<rect x="60.9" y="2" class="st0" width="3.7" height="3.7"/>
	<polygon class="st0" points="60.9,24.1 60.9,27.8 64.6,27.8 64.6,24.1 64.6,20.4 60.9,20.4 	"/>
	<polygon class="st0" points="64.6,38.8 64.6,31.4 60.9,31.4 60.9,35.1 57.2,35.1 53.5,35.1 53.5,38.8 57.2,38.8 57.2,42.5 
		60.9,42.5 60.9,38.8 	"/>
	<rect x="68.2" y="68.2" class="st0" width="3.7" height="3.7"/>
	<polygon class="st0" points="71.9,31.4 71.9,35.1 68.2,35.1 68.2,38.8 71.9,38.8 75.6,38.8 75.6,31.4 	"/>
	<polygon class="st0" points="79.3,9.4 79.3,9.4 75.6,9.4 75.6,20.4 79.3,20.4 79.3,20.4 83,20.4 86.6,20.4 86.6,9.4 83,9.4 	"/>
	<path class="st0" d="M83,35.1h-3.7v3.7h-3.7v3.7h-3.7h-3.7h-3.7h-3.7v3.7h3.7h3.7v3.7h-3.7h-3.7v-3.7h-3.7v11h-3.7v3.7h3.7h3.7v3.7
		v11h-3.7v11h-3.7V94h3.7v-7.4h3.7V94h3.7h3.7h3.7v-3.7h-3.7v-3.7h-3.7V83h3.7v-3.7h3.7h3.7V83h-3.7v3.7v3.7h3.7h3.7V94H83v-3.7
		h-3.7v-3.7v0H83V83h-3.7v-7.4v-11v-3.7H83v-3.7h3.7v-3.7H83h-3.7v3.7h-3.7h-3.7v3.7h-3.7h-3.7v-7.4h3.7v3.7h3.7v-3.7h3.7v-7.4h3.7
		h0H83v-3.7h3.7v-3.7H83V35.1z M64.6,83h-3.7v-3.7h3.7V83z M68.2,64.6h3.7h3.7v11h-3.7h-3.7h-3.7v-11H68.2z"/>
	<rect x="83" y="31.4" class="st0" width="3.7" height="3.7"/>
	<rect x="86.6" y="60.9" class="st0" width="3.7" height="3.7"/>
	<polygon class="st0" points="86.6,86.6 90.3,86.6 90.3,86.6 94,86.6 94,83 90.3,83 90.3,75.6 86.6,75.6 86.6,79.3 83,79.3 83,83 
		86.6,83 	"/>
	<path class="st0" d="M90.3,2h-3.7H83h-3.7h0h-3.7h-3.7h-3.7v22.1v0v3.7h3.7h3.7h3.7h0H83h3.7h3.7H94v-3.7v0V2H90.3z M86.6,24.1H83
		h-3.7h0h-3.7h-3.7V5.7h3.7h3.7h0H83h3.7h3.7v18.4H86.6z"/>
	<polygon class="st0" points="90.3,35.1 86.6,35.1 86.6,38.8 90.3,38.8 90.3,42.5 94,42.5 94,31.4 90.3,31.4 	"/>
	<polygon class="st0" points="90.3,57.2 94,57.2 94,46.2 90.3,46.2 90.3,49.8 86.6,49.8 86.6,53.5 90.3,53.5 	"/>
	<rect x="90.3" y="64.6" class="st0" width="3.7" height="7.4"/>
	<rect x="90.3" y="90.3" class="st0" width="3.7" height="3.7"/>
</g>
</svg>
